<?xml version="1.0" encoding="UTF-8" standalone="no"?>
<svg
   xmlns:dc="http://purl.org/dc/elements/1.1/"
   xmlns:cc="http://creativecommons.org/ns#"
   xmlns:rdf="http://www.w3.org/1999/02/22-rdf-syntax-ns#"
   xmlns:svg="http://www.w3.org/2000/svg"
   xmlns="http://www.w3.org/2000/svg"
   xmlns:xlink="http://www.w3.org/1999/xlink"
   xmlns:sodipodi="http://sodipodi.sourceforge.net/DTD/sodipodi-0.dtd"
   xmlns:inkscape="http://www.inkscape.org/namespaces/inkscape"
   id="Capa_1"
   enable-background="new 0 0 515.556 515.556"
   height="512"
   viewBox="0 0 515.556 515.556"
   width="512"
   version="1.1"
   sodipodi:docname="user.svg"
   inkscape:version="0.92.4 5da689c313, 2019-01-14">
  <metadata
     id="metadata11">
    <rdf:RDF>
      <cc:Work
         rdf:about="">
        <dc:format>image/svg+xml</dc:format>
        <dc:type
           rdf:resource="http://purl.org/dc/dcmitype/StillImage" />
        <dc:title></dc:title>
      </cc:Work>
    </rdf:RDF>
  </metadata>
  <defs
     id="defs9">
    <clipPath
       clipPathUnits="userSpaceOnUse"
       id="clipPath5717">
      <use
         x="0"
         y="0"
         xlink:href="#g5713"
         id="use5719"
         width="100%"
         height="100%"
         transform="translate(-0.38617918,36.300844)" />
    </clipPath>
  </defs>
  <sodipodi:namedview
     pagecolor="#252525"
     bordercolor="#666666"
     borderopacity="1"
     objecttolerance="10"
     gridtolerance="10"
     guidetolerance="10"
     inkscape:pageopacity="1"
     inkscape:pageshadow="2"
     inkscape:window-width="1920"
     inkscape:window-height="1032"
     id="namedview7"
     showgrid="false"
     inkscape:zoom="3.6874999"
     inkscape:cx="229.73785"
     inkscape:cy="582.93444"
     inkscape:window-x="0"
     inkscape:window-y="0"
     inkscape:window-maximized="0"
     inkscape:current-layer="g850"
     units="in"
     inkscape:snap-nodes="false"
     inkscape:snap-global="false" />
  <g
     id="g850">
    <rect
       y="-1.5136719e-05"
       x="-1.5136719e-05"
       height="515.55603"
       width="515.55603"
       id="rect843"
       style="opacity:1;fill:#556080;fill-opacity:1;stroke-width:0.99224943" />
    <g
       id="g5713"
       inkscape:label="Clip"
       transform="translate(0.38617918,-36.300844)">
      <path
         style="fill:#e7eced;fill-opacity:1;fill-rule:evenodd"
         id="path4"
         d="m 147.44929,159.49931 c 0,0 -35.15532,-63.147037 -103.597816,-106.188283 -15.762278,41.515894 27.010914,198.408073 8.892021,283.829483 -5.835119,26.96056 -27.191788,66.33391 -21.113449,93.98217 9.216917,10.92712 53.466465,30.46415 67.690653,30.52 -19.532976,42.20361 -42.538758,57.35969 -42.382231,91.3727 l 382.371102,1.15854 c 0,0 -49.68347,-73.98758 -92.26648,-84.98797 -8.67553,-2.24113 76.96119,-6.06067 92.43171,-29.56315 13.55105,-16.18451 22.80469,-40.01916 23.39171,-87.10463 -0.11633,-21.55468 -16.98105,-221.78768 10.38373,-296.890067 -45.1807,12.995762 -99.81031,88.993197 -136.60485,152.425887 -39.23988,-9.3496 -111.68733,-8.8965 -157.5294,2.42097"
         inkscape:connector-curvature="0"
         sodipodi:nodetypes="cccccccsccccc" />
    </g>
    <path
       style="fill:#e7d48f;fill-opacity:1;stroke:#000000;stroke-width:1.00694525px;stroke-linecap:butt;stroke-linejoin:miter;stroke-opacity:0"
       d="M 112.76432,206.22647 73.374045,214.72242 56.382161,51.368618 150.60989,171.47034 Z"
       id="path5760"
       inkscape:connector-curvature="0"
       sodipodi:nodetypes="ccccc" />
    <path
       style="fill:#e7d48f;fill-opacity:1;stroke:#000000;stroke-width:1.00694525;stroke-linecap:butt;stroke-linejoin:miter;stroke-miterlimit:4;stroke-dasharray:none;stroke-opacity:0"
       d="m 389.31513,209.81149 38.61791,17.76425 c 11.88033,-49.97903 8.31622,-115.61759 35.91467,-195.020498 0,0 -45.36106,54.2444 -62.0695,75.699038 -17.81989,22.8818 -44.90214,74.52467 -44.90214,74.52467 z"
       id="path5760-5"
       inkscape:connector-curvature="0"
       sodipodi:nodetypes="cccscc" />
    <ellipse
       style="fill:#000000;fill-opacity:1;fill-rule:evenodd;stroke:#000000;stroke-width:0.55561221;stroke-miterlimit:4;stroke-dasharray:none;stroke-opacity:0"
       id="path5801"
       cx="353.74011"
       cy="283.46231"
       rx="27.258207"
       ry="26.872032" />
    <ellipse
       style="fill:#000000;fill-opacity:1;fill-rule:evenodd;stroke:#000000;stroke-width:0.53991699;stroke-miterlimit:4;stroke-dasharray:none;stroke-opacity:0"
       id="path5801-6"
       cx="105.8131"
       cy="285.39319"
       rx="26.493698"
       ry="26.107521" />
    <path
       style="fill:#000000;fill-opacity:1;stroke:#000000;stroke-width:1.00694525px;stroke-linecap:butt;stroke-linejoin:miter;stroke-opacity:1"
       d="m 162.19525,348.34041 c 7.3441,5.82243 11.04047,6.41469 22.3984,16.60572 17.92512,-7.22998 22.51635,-8.63025 30.12198,-17.37807 -4.20887,-6.31452 -6.21563,-9.35736 -12.28103,-18.60007 13.30048,-0.5095 9.78522,-1.40843 20.39078,-1.48125 8.06863,-0.16198 9.47347,0.11176 17.41261,1.38752 -2.75776,9.46326 -8.00601,14.4457 -12.39228,16.37671 7.82948,10.7281 2.7772,13.39345 33.21141,22.01222 19.23503,-11.46254 27.41872,-18.5366 27.41872,-18.5366 0,0 -0.79012,8.52922 -25.874,23.17076 -32.40888,-6.12674 -40.54882,-17.37807 -40.54882,-17.37807 0,0 -19.7613,14.07166 -38.21367,17.58459 -14.18929,-9.76493 -9.94332,-10.92756 -21.6441,-23.76346 z"
       id="path5827"
       inkscape:connector-curvature="0"
       sodipodi:nodetypes="ccccccccccccc" />
    <ellipse
       style="fill:#ca005d;fill-opacity:1;fill-rule:evenodd;stroke:#000000;stroke-width:1.00694525;stroke-miterlimit:4;stroke-dasharray:none;stroke-opacity:0"
       id="path5838"
       cx="86.697227"
       cy="334.05179"
       rx="38.424828"
       ry="15.833346" />
    <ellipse
       style="fill:#ca005d;fill-opacity:1;fill-rule:evenodd;stroke:#000000;stroke-width:1.00694525;stroke-miterlimit:4;stroke-dasharray:none;stroke-opacity:0"
       id="path5838-2"
       cx="374.98001"
       cy="342.54776"
       rx="38.424828"
       ry="15.833346" />
  </g>
</svg>
